<svg id="Flat" xmlns="http://www.w3.org/2000/svg" viewBox="0 0 214.23 245.22"><defs><style>.cls-1{fill:#3e9cdc;}</style></defs><path d="M214.23,101.22a8,8,0,0,0-2.43-5.74L155.88,39.56c-.19-.18-.38-.36-.58-.53l-.16-.11-.47-.35-.14-.09c-.18-.11-.35-.22-.54-.32l-.1,0c-.2-.1-.4-.2-.6-.28l-.08,0a6.42,6.42,0,0,0-.66-.24l-.08,0-.68-.17-.19,0-.58-.08a7.14,7.14,0,0,0-.8,0h-96a16,16,0,0,0-16,16v176a16,16,0,0,0,16,16h144a16,16,0,0,0,16-16V101.38C214.22,101.32,214.23,101.27,214.23,101.22Zm-56-36.69,28.69,28.69H158.22Zm40,164.69h-144v-176h88v48a8,8,0,0,0,8,8h48v120Z"/><path d="M163.15,140.22H89.3c-5.1,0-9.24,3.58-9.24,8s4.14,8,9.24,8h73.85c5.09,0,9.23-3.58,9.23-8S168.24,140.22,163.15,140.22Z"/><path d="M163.14,163.92H89.29c-5.09,0-9.23,3.58-9.23,8s4.14,8,9.23,8h73.85c5.1,0,9.24-3.58,9.24-8S168.24,163.92,163.14,163.92Z"/><path d="M163.14,187.31H89.29c-5.09,0-9.23,3.58-9.23,8s4.14,8,9.23,8h73.85c5.1,0,9.24-3.59,9.24-8S168.24,187.31,163.14,187.31Z"/><circle cx="47.07" cy="47.07" r="47.07"/><polyline class="cls-1" points="10.61 37.22 84.29 37.22 84.29 53.22 9.84 53.22 9.84 37.22 10.61 37.22"/><polyline class="cls-1" points="38.21 82.62 38.21 8.94 54.21 8.94 54.21 83.39 38.21 83.39 38.21 82.62"/></svg>