<?xml version="1.0" encoding="utf-8"?>
<!-- Generator: Adobe Illustrator 25.0.0, SVG Export Plug-In . SVG Version: 6.00 Build 0)  -->
<svg version="1.1" id="Flat" xmlns="http://www.w3.org/2000/svg" xmlns:xlink="http://www.w3.org/1999/xlink" x="0px" y="0px"
	 viewBox="0 0 214.2 245.2" style="enable-background:new 0 0 214.2 245.2;" xml:space="preserve">
<g>
	<path d="M214.2,101.2c0-2.2-0.9-4.2-2.4-5.7l-55.9-55.9c-0.2-0.2-0.4-0.4-0.6-0.5l-0.2-0.1l-0.5-0.3l-0.1-0.1
		c-0.2-0.1-0.4-0.2-0.5-0.3h-0.1c-0.2-0.1-0.4-0.2-0.6-0.3h-0.1c-0.2-0.1-0.4-0.2-0.7-0.2h-0.1l-0.7-0.2h-0.2l-0.6-0.1
		c-0.3,0-0.5,0-0.8,0h-96c-8.8,0-16,7.2-16,16v176c0,8.8,7.2,16,16,16h144c8.8,0,16-7.2,16-16v-128
		C214.2,101.3,214.2,101.3,214.2,101.2z M158.2,64.5l28.7,28.7h-28.7L158.2,64.5z M198.2,229.2h-144v-176h88v48c0,4.4,3.6,8,8,8h48
		V229.2z"/>
	<path d="M163.1,140.2H89.3c-5.1,0-9.2,3.6-9.2,8s4.1,8,9.2,8h73.8c5.1,0,9.2-3.6,9.2-8S168.2,140.2,163.1,140.2z"/>
	<path d="M163.1,163.9H89.3c-5.1,0-9.2,3.6-9.2,8s4.1,8,9.2,8h73.8c5.1,0,9.2-3.6,9.2-8S168.2,163.9,163.1,163.9z"/>
	<path d="M163.1,187.3H89.3c-5.1,0-9.2,3.6-9.2,8s4.1,8,9.2,8h73.8c5.1,0,9.2-3.6,9.2-8S168.2,187.3,163.1,187.3z"/>
	<circle cx="47.1" cy="47.1" r="47.1"/>
	<polyline fill="#3E9CDC" points="10.6,37.2 84.3,37.2 84.3,53.2 9.8,53.2 9.8,37.2 10.6,37.2 	"/>
	<polyline fill="#3E9CDC" points="38.2,82.6 38.2,8.9 54.2,8.9 54.2,83.4 38.2,83.4 38.2,82.6 	"/>
</g>
</svg>
