<?xml version="1.0" encoding="utf-8"?>
<!-- Generator: Adobe Illustrator 25.0.0, SVG Export Plug-In . SVG Version: 6.00 Build 0)  -->
<svg version="1.1" id="Layer_1" xmlns="http://www.w3.org/2000/svg" xmlns:xlink="http://www.w3.org/1999/xlink" x="0px" y="0px"
	 viewBox="0 0 10.5 11" style="enable-background:new 0 0 10.5 11;" xml:space="preserve">

<g>
	<g fill="#3e97d5">
		<path class="st0" d="M8.7,7.6c-0.1-0.4-0.3-0.8-0.6-1C8.1,6.5,8,6.4,7.8,6.3c-0.1,0-0.1-0.1-0.2-0.1C7.5,6.2,7.3,6.1,7.1,6.2
			c0.1-0.1,0.3-0.1,0.5-0.1c0.1,0,0.3,0.1,0.4,0.1C8,6.2,8.1,6.3,8.3,6.4c0.3-0.8,0.2-1.8-0.1-2.5C7.8,3.1,7.4,2.5,6.9,2.1
			c-0.5-0.5-1.1-0.8-2-1C4.5,1,4,1,3.6,1.1c-0.4,0.1-0.7,0.3-1,0.5C2.4,1.8,2.1,2,1.9,2.4C1.9,2.4,1.8,2.5,1.8,2.6
			c0,0.1-0.1,0.2-0.1,0.3C1.6,3,1.5,3.2,1.5,3.4c-0.1,0.4-0.1,0.9,0,1.3c0,0.4,0.2,0.8,0.3,1.2C1.9,6.1,1.9,6.3,2,6.4
			c0.1,0.2,0.2,0.3,0.3,0.4c0.2,0.3,0.5,0.5,0.8,0.7C3.7,8,4.4,8.3,5.4,8.3c0,0,0-0.1,0-0.2c0-0.1,0-0.1,0-0.2c0-0.1,0-0.3,0-0.4
			c0,0,0,0.1,0.1,0.1c0,0,0,0.1,0.1,0.1c0,0.1,0.1,0.1,0.1,0.2C5.6,8,5.7,8.1,5.8,8.2C5.9,8.3,6,8.3,6.1,8.4
			c0.1,0.1,0.2,0.1,0.4,0.2C6.7,8.7,7,8.7,7.3,8.8c0.3,0,0.6,0.1,0.9,0.2C8.5,9,8.8,9.1,9,9.3c0.1,0.1,0.2,0.1,0.3,0.2
			c0.1,0,0.1,0.1,0.2,0.1c0.1,0,0.1,0.1,0.2,0.1c0.2,0.2,0.4,0.4,0.5,0.6c0.1,0.1,0.2,0.2,0.2,0.3c0,0,0.1,0.1,0.1,0.2
			c0,0.1,0.1,0.1,0,0.2c-0.1,0-0.1-0.1-0.1-0.1c0,0-0.1-0.1-0.1-0.1c-0.1-0.1-0.3-0.3-0.4-0.4C9.7,10.2,9.6,10,9.4,9.9
			C9.1,9.7,8.7,9.5,8.2,9.4C7.8,9.3,7.3,9.2,6.7,9.2C6.5,9.3,6.2,9.3,6,9.4C5.8,9.4,5.6,9.5,5.3,9.5c-1,0.1-2-0.2-2.8-0.5
			c-0.4-0.2-0.7-0.4-1-0.7C1.3,8.2,1.2,8.1,1.1,7.9C0.9,7.8,0.8,7.6,0.7,7.4C0.6,7.3,0.5,7.1,0.4,6.9C0.3,6.7,0.2,6.5,0.2,6.3
			C0.1,6.1,0.1,5.8,0,5.6c0-0.1,0-0.2,0-0.3c0,0,0,0,0,0c0-0.1,0-0.3,0-0.3c0-0.2,0-0.5,0.1-0.7c0-0.2,0.1-0.5,0.2-0.7
			C0.4,3.2,0.5,3,0.5,2.8c0.1-0.1,0.1-0.2,0.2-0.3c0-0.1,0.1-0.2,0.2-0.3c0,0,0.1-0.1,0.1-0.1C1,2.1,1,2.1,1,2.1
			c0,0,0.1-0.1,0.1-0.1c0,0,0.1-0.1,0.1-0.1c0.1-0.1,0.3-0.3,0.4-0.4C1.8,1.3,1.9,1.1,2.1,1c0.1,0,0.2-0.1,0.3-0.2
			c0.1-0.1,0.2-0.1,0.2-0.2C2.8,0.6,3,0.5,3.2,0.4c0.2-0.1,0.4-0.2,0.6-0.2C4.2,0.1,4.7,0,5.3,0c0,0,0,0,0,0c1.1,0,1.9,0.4,2.5,0.8
			c0.7,0.4,1.2,1,1.5,1.8c0.4,0.7,0.6,1.7,0.4,2.8C9.7,5.8,9.5,6.2,9.4,6.6C9.3,6.8,9.2,7,9.1,7.1C9,7.2,9,7.3,8.9,7.4
			C8.9,7.4,8.8,7.5,8.7,7.6C8.8,7.5,8.8,7.5,8.7,7.6C8.8,7.6,8.8,7.6,8.7,7.6C8.8,7.6,8.7,7.6,8.7,7.6z"/>
		<path class="st0" d="M8.4,7.9C8.2,7.8,8.2,7.7,8.1,7.5c0,0,0-0.1,0-0.2c0,0,0,0,0,0c0,0,0.1,0,0.1,0c0.1,0.1,0.1,0.2,0.1,0.3
			C8.4,7.8,8.4,7.9,8.4,7.9z"/>
		<path class="st0" d="M7.3,7.7C7.3,7.7,7.3,7.7,7.3,7.7c0.2,0,0.3,0.2,0.3,0.4c0,0.1-0.1,0.2-0.2,0.2C7.2,8.3,7,8,7.1,7.8
			C7.2,7.7,7.2,7.7,7.3,7.7z"/>
	</g>
</g>
</svg>
