<?xml version="1.0" encoding="utf-8"?>
<!-- Generator: Adobe Illustrator 25.0.0, SVG Export Plug-In . SVG Version: 6.00 Build 0)  -->
<svg version="1.1"
	 id="svg2" xmlns:cc="http://creativecommons.org/ns#" xmlns:dc="http://purl.org/dc/elements/1.1/" xmlns:inkscape="http://www.inkscape.org/namespaces/inkscape" xmlns:rdf="http://www.w3.org/1999/02/22-rdf-syntax-ns#" xmlns:sodipodi="http://sodipodi.sourceforge.net/DTD/sodipodi-0.dtd" xmlns:svg="http://www.w3.org/2000/svg"
	 xmlns="http://www.w3.org/2000/svg" xmlns:xlink="http://www.w3.org/1999/xlink" x="0px" y="0px" viewBox="0 0 17 22"
	 style="enable-background:new 0 0 17 22;" xml:space="preserve">

<g fill="#3e97d5" id="g3140" transform="matrix(0.64050449,0,0,0.64031522,0,25.600003)">
	<path id="path3144" class="st0" d="M0-6.4l0.1-32.8c0-0.2,0.1-0.4,0.2-0.6C0.4-39.9,0.6-40,0.8-40H15c4.9,0,9.4,2.6,9.4,8
		c0,3.3-0.9,5.1-2.6,6.6L21-24.7l0.6,0.2c0.2,0.1,0.4,0.2,0.6,0.3c1,0.5,1.6,1,2.2,1.7c1.8,1.9,2.1,3.8,2.1,6.6
		c0,7-6.4,10.3-12.2,10.3H0.8C0.3-5.6,0-6,0-6.4z M25-15.9c0-2.6-0.3-4-1.7-5.5c-0.5-0.6-1-1-1.8-1.4c-0.4-0.2-2-0.7-2.5-1l-0.1,0
		c-0.5-0.3-0.4-1,0-1.3c2.7-1.7,3.9-3,3.9-6.7c0-4.3-3.4-6.5-7.9-6.5H1.6L1.6-7.2h12.7C19.7-7.2,25-10.2,25-15.9z M8.6-11.7
		c-0.4,0-0.8-0.3-0.8-0.8l0-8.2c0-0.4,0.3-0.8,0.8-0.8c1.8,0,4.3-0.2,6.2,0.2c2.1,0.5,3.7,1.8,3.6,4.7c0,2.8-1.6,4.1-3.6,4.6
		C12.9-11.5,10.4-11.7,8.6-11.7z M14.4-13.5c1.5-0.4,2.4-1.1,2.5-3.1c0-2.1-0.9-2.8-2.4-3.1c-0.8-0.2-1.8-0.2-2.8-0.2l-2.3,0v6.6
		l-0.8,0C10.7-13.2,12.7-13.1,14.4-13.5z M8.6-25.6c-0.4,0-0.8-0.3-0.8-0.8v-4.3l0-2.6c0-0.4,0.3-0.8,0.8-0.8c1.5,0,3.4-0.2,4.9,0.2
		c1.7,0.4,2.9,1.5,2.9,3.8c0,2.4-1.1,3.6-2.7,4.1C12.2-25.4,10.3-25.6,8.6-25.6z M13.2-27.3c1-0.3,1.6-0.9,1.6-2.6
		c0-1.5-0.7-2-1.7-2.3c-0.9-0.2-2.1-0.2-3.3-0.2l-0.5,0l0,1.8l0,3.5l-0.8,0C10.5-27.1,12.1-27,13.2-27.3z"/>
</g>
</svg>
