<?xml version="1.0" encoding="utf-8"?>
<!-- Generator: Adobe Illustrator 25.0.0, SVG Export Plug-In . SVG Version: 6.00 Build 0)  -->
<svg version="1.1"
	 id="svg2" xmlns:cc="http://creativecommons.org/ns#" xmlns:dc="http://purl.org/dc/elements/1.1/" xmlns:inkscape="http://www.inkscape.org/namespaces/inkscape" xmlns:rdf="http://www.w3.org/1999/02/22-rdf-syntax-ns#" xmlns:sodipodi="http://sodipodi.sourceforge.net/DTD/sodipodi-0.dtd" xmlns:svg="http://www.w3.org/2000/svg"
	 xmlns="http://www.w3.org/2000/svg" xmlns:xlink="http://www.w3.org/1999/xlink" x="0px" y="0px" viewBox="0 0 23.3 24"
	 style="enable-background:new 0 0 23.3 24;" xml:space="preserve">

<g fill="#3e97d5" id="g3269" transform="matrix(0.64050449,0,0,0.64031522,0,25.600003)">
	<path id="path3271" class="st0" d="M0-21.2C0-31.6,8.4-40,18.8-40c3.4,0,6.5,0.9,9.2,2.4c0.4,0.3,0.5,0.9,0.2,1.2l-1.7,1.7
		c-0.3,0.3-0.8,0.3-1.1,0l-2.1-2.1l-3.5,3.5c-0.3,0.3-0.8,0.3-1.1,0l-2.3-2.3c-0.1-0.1-0.2-0.1-0.3,0L10-29.5
		c-0.1,0.1-0.1,0.2,0,0.2l4.4,4.4c0.3,0.3,0.3,0.8,0,1.1l-1.6,1.6c-0.1,0.1-0.1,0.2,0,0.2l4.4,4.4c0.3,0.3,0.3,0.8,0,1.1l-1.3,1.3
		c-0.1,0.1-0.1,0.2,0,0.2L22-8.9c0.1,0.1,0.2,0.1,0.2,0l3-3c0.3-0.3,0.8-0.3,1.1,0l4.1,4.1c0.3,0.3,0.3,0.9-0.1,1.2
		C27.2-4,23.2-2.5,18.8-2.5C8.4-2.5,0-10.9,0-21.2z M28.7-7.2l-2.9-2.9l-2.4,2.4c-0.7,0.7-1.8,0.7-2.5,0l-6.1-6.1
		c-0.7-0.7-0.7-1.8,0-2.5l0.7-0.7l-3.8-3.8c-0.7-0.7-0.7-1.8,0-2.5l1-1l-3.8-3.8c-0.7-0.7-0.7-1.8,0-2.5l6.1-6.1
		c0.7-0.7,1.8-0.7,2.5,0l1.8,1.8l2.9-2.9l0.2-0.2L21-38.3c-0.7-0.1-1.5-0.1-2.3-0.1c-9.5,0-17.2,7.7-17.2,17.2S9.3-4,18.8-4
		c3.5,0,6.8-1.1,9.5-2.9L28.7-7.2z M25.9-36.3l0.4-0.4l-1-0.5L25-37.2L25.9-36.3z"/>
	<path id="path3273" class="st0" d="M15.9-26l-3-3c-0.3-0.2-0.3-0.7,0-0.9l3-3c0.3-0.2,0.7-0.2,0.9,0l3,3c0.3,0.2,0.3,0.7,0,0.9
		l-3,3C16.6-25.8,16.2-25.8,15.9-26z"/>
	<path id="path3275" class="st0" d="M19-18.8l-3-3c-0.2-0.3-0.2-0.7,0-0.9l3-3c0.2-0.3,0.7-0.3,0.9,0l3,3c0.2,0.3,0.2,0.7,0,0.9
		l-3,3C19.6-18.5,19.2-18.5,19-18.8z"/>
	<path id="path3277" class="st0" d="M22-11.5l-3-3c-0.2-0.3-0.2-0.7,0-0.9l3-3c0.2-0.3,0.7-0.3,0.9,0l3,3c0.2,0.3,0.2,0.7,0,0.9
		l-3,3C22.7-11.3,22.3-11.3,22-11.5z"/>
	<path id="path3279" class="st0" d="M22.9-28.7l-2.2-2.2c-0.2-0.2-0.2-0.5,0-0.7l2.2-2.2c0.2-0.2,0.5-0.2,0.7,0l2.2,2.2
		c0.2,0.2,0.2,0.5,0,0.7l-2.2,2.2C23.3-28.6,23-28.6,22.9-28.7z"/>
	<path id="path3281" class="st0" d="M25.6-22.6l-2.2-2.2c-0.2-0.2-0.2-0.5,0-0.7l2.2-2.2c0.2-0.2,0.5-0.2,0.7,0l2.2,2.2
		c0.2,0.2,0.2,0.5,0,0.7l-2.2,2.2C26.1-22.4,25.8-22.4,25.6-22.6z"/>
	<path id="path3283" class="st0" d="M28.4-15.9l-2.2-2.2c-0.2-0.2-0.2-0.5,0-0.7l2.2-2.2c0.2-0.2,0.5-0.2,0.7,0l2.2,2.2
		c0.2,0.2,0.2,0.5,0,0.7l-2.2,2.2C28.9-15.7,28.6-15.7,28.4-15.9z"/>
	<path id="path3285" class="st0" d="M31.2-9.5L29-11.7c-0.2-0.2-0.2-0.5,0-0.7l2.2-2.2c0.2-0.2,0.5-0.2,0.7,0l2.2,2.2
		c0.2,0.2,0.2,0.5,0,0.7l-2.2,2.2C31.7-9.3,31.4-9.3,31.2-9.5z"/>
	<path id="path3287" class="st0" d="M28.8-31.2l-1.5-1.5c-0.1-0.1-0.1-0.3,0-0.5l1.5-1.5c0.1-0.1,0.3-0.1,0.5,0l1.5,1.5
		c0.1,0.1,0.1,0.3,0,0.5l-1.5,1.5C29.1-31.1,28.9-31.1,28.8-31.2z"/>
	<path id="path3289" class="st0" d="M31.6-24.8l-1.5-1.5c-0.1-0.1-0.1-0.3,0-0.5l1.5-1.5c0.1-0.1,0.3-0.1,0.5,0l1.5,1.5
		c0.1,0.1,0.1,0.3,0,0.5L32-24.8C31.9-24.7,31.7-24.7,31.6-24.8z"/>
	<path id="path3291" class="st0" d="M34.4-18.7l-1.5-1.5c-0.1-0.1-0.1-0.3,0-0.5l1.5-1.5c0.1-0.1,0.3-0.1,0.5,0l1.5,1.5
		c0.1,0.1,0.1,0.3,0,0.5l-1.5,1.5C34.7-18.5,34.5-18.5,34.4-18.7z"/>
</g>
</svg>
