<?xml version="1.0" encoding="utf-8"?>
<!-- Generator: Adobe Illustrator 25.0.0, SVG Export Plug-In . SVG Version: 6.00 Build 0)  -->
<svg version="1.1"
	 id="svg2" xmlns:cc="http://creativecommons.org/ns#" xmlns:dc="http://purl.org/dc/elements/1.1/" xmlns:inkscape="http://www.inkscape.org/namespaces/inkscape" xmlns:rdf="http://www.w3.org/1999/02/22-rdf-syntax-ns#" xmlns:sodipodi="http://sodipodi.sourceforge.net/DTD/sodipodi-0.dtd" xmlns:svg="http://www.w3.org/2000/svg"
	 xmlns="http://www.w3.org/2000/svg" xmlns:xlink="http://www.w3.org/1999/xlink" x="0px" y="0px" viewBox="0 0 20 22.1"
	 style="enable-background:new 0 0 20 22.1;" xml:space="preserve">

<g fill="#3e97d5" id="g3249" transform="matrix(0.64050449,0,0,0.64031522,0,25.600003)">
	<path id="path3251" class="st0" d="M13-24.7c-1-1-0.5-2.9,0.9-4.3c0.6-0.6,1.4-1.1,2.1-1.3c0.7-0.2,1.6-0.2,2.2,0.4
		c1,1,0.5,2.9-0.9,4.3c-0.6,0.6-1.4,1.1-2.1,1.3C14.5-24.1,13.6-24.1,13-24.7z M14.8-25.8c0.4-0.1,0.9-0.4,1.4-0.9
		c0.5-0.5,0.8-1,0.9-1.4c0.1-0.4,0-0.6,0-0.7c0,0-0.2-0.1-0.7,0c-0.4,0.1-0.9,0.4-1.4,0.9c-0.5,0.5-0.8,1-0.9,1.4
		c-0.1,0.4,0,0.6,0,0.7C14.2-25.7,14.4-25.6,14.8-25.8z"/>
	<path id="path3253" class="st0" d="M0-9.3v-17.5c0-2.4,1.2-3.7,2.5-4.4l16.2-8l0.3-0.2c1.1-0.5,3.1-0.9,4-0.2
		c0.3,0.2,0.5,0.6,0.6,1l0,0.3l0,18.3c0,1.2-0.5,2.2-1.5,2.8L21.6-17L6.3-9.9l-0.1,0C6.1-9.9,6.1-9.8,6-9.7l0,0.1l0.2,0
		c0.2,0,0.5-0.1,1.1-0.2L23.4-15c0.9-0.3,1.2-0.5,1.3-0.8c0.2-0.4,0.3-1,0.3-2.6l0-11.3c0-0.4,0.3-0.7,0.7-0.8
		c2.1-0.2,5.6,0.5,5.5,3.7l0,17.5c0,2.5-1.4,3.8-3.9,3.8H4C1.4-5.4,0-6.8,0-9.3z M29.6-9.2l0-17.6c0-1.2-1.1-1.9-2.4-2.1l-0.7,0
		l0,10.5c0,1.4-0.1,2.5-0.5,3.3c-0.4,0.9-1.2,1.2-2.2,1.6L7.8-8.4l-0.1,0C6.7-8.1,5.9-8,5.3-8.2C5.1-8.3,4.9-8.5,4.7-8.7
		C4.7-8.7,4.6-8.8,4.6-8.9c0-0.1-0.1-0.1-0.1-0.2C4.3-9.8,4.6-10.6,5.1-11l0.5-0.3L21-18.4c0.8-0.3,1-0.8,1.1-1.6v-18.3L22-38.4
		c-0.5-0.1-1.8,0.1-2.5,0.6l-0.1,0l-16.2,8c-0.8,0.4-1.6,1.2-1.6,3v17.5C1.6-7.7,2.3-7,4-7h23.3C29-7,29.7-7.7,29.6-9.2z"/>
</g>
</svg>
